<svg width="15" height="16" viewBox="0 0 15 16" fill="none" xmlns="http://www.w3.org/2000/svg">
<g id="github-142-svgrepo-com (1) 1" clip-path="url(#clip0_4_29)">
<g id="Page-1">
<g id="Dribbble-Light-Preview">
<g id="icons">
<path id="github-[#142]" fill-rule="evenodd" clip-rule="evenodd" d="M7.5 0.5C11.6423 0.5 15 3.94245 15 8.1897C15 11.5864 12.8535 14.468 9.87525 15.4857C9.495 15.5615 9.36 15.3213 9.36 15.1166C9.36 14.8631 9.369 14.0351 9.369 13.0061C9.369 12.2891 9.129 11.8211 8.85975 11.5826C10.53 11.3921 12.285 10.7418 12.285 7.78833C12.285 6.94833 11.994 6.26287 11.5125 5.72437C11.5905 5.53012 11.8477 4.74796 11.439 3.68896C11.439 3.68896 10.8105 3.48292 9.37875 4.47742C8.7795 4.30717 8.1375 4.22151 7.5 4.21851C6.8625 4.22151 6.22125 4.30717 5.62275 4.47742C4.1895 3.48292 3.5595 3.68896 3.5595 3.68896C3.15225 4.74796 3.4095 5.53012 3.48675 5.72437C3.0075 6.26287 2.71425 6.94833 2.71425 7.78833C2.71425 10.7343 4.4655 11.3946 6.13125 11.5889C5.91675 11.7809 5.7225 12.1196 5.655 12.6168C5.2275 12.8133 4.1415 13.1534 3.4725 11.9781C3.4725 11.9781 3.07575 11.2393 2.32275 11.1853C2.32275 11.1853 1.5915 11.1756 2.27175 11.6526C2.27175 11.6526 2.763 11.8888 3.10425 12.7776C3.10425 12.7776 3.5445 14.1501 5.631 13.6851C5.63475 14.3278 5.6415 14.9336 5.6415 15.1166C5.6415 15.3198 5.5035 15.5577 5.12925 15.4865C2.14875 14.4702 0 11.5872 0 8.1897C0 3.94245 3.3585 0.5 7.5 0.5Z" fill="black"/>
</g>
</g>
</g>
</g>
<defs>
<clipPath id="clip0_4_29">
<rect width="15" height="15" fill="white" transform="translate(0 0.5)"/>
</clipPath>
</defs>
</svg>
