<svg width="30" height="31" viewBox="0 0 30 31" fill="none" xmlns="http://www.w3.org/2000/svg">
<g id="inbox-svgrepo-com 1" clip-path="url(#clip0_4_12)">
<path id="Vector" d="M0.738586 24.6771C0.738586 26.2112 1.26143 27.5093 2.30711 28.5714C3.3528 29.6334 4.61713 30.1743 6.1001 30.194H23.9243C25.3882 30.194 26.643 29.6531 27.6887 28.5714C28.7344 27.4896 29.2573 26.1915 29.2573 24.6771V19.1307L22.1276 11.7552H7.86825L0.738586 19.1307V24.6771ZM4.30342 20.9893L9.35123 15.4429H20.6446L25.6924 20.9893H20.3594V22.8185C20.3594 23.3298 20.1788 23.7724 19.8176 24.1461C19.4563 24.5198 19.0381 24.6968 18.5628 24.6771H11.4331C10.9388 24.6771 10.5205 24.5001 10.1783 24.1461C9.83604 23.792 9.66493 23.3495 9.66493 22.8185V20.9893H4.30342Z" fill="#4A956D"/>
</g>
<defs>
<clipPath id="clip0_4_12">
<rect width="28.5187" height="29.5021" fill="white" transform="translate(0.738586 0.937759)"/>
</clipPath>
</defs>
</svg>
